# xmcd CD database file
#
# Track frame offsets:
#	150
#	13210
#	25360
#	37767
#	51472
#	61895
#	72675
#	84465
#	97672
#	111935
#	124755
#	138650
#	151675
#	163320
#	174620
#	188452
#	200712
#	212617
#	225937
#	239487
#
# Disc length: 3372 seconds
#
# Revision: 1
# Processed by: cddbd v1.5.2PL0 Copyright (c) Steve Scherf et al.
# Submitted via: CDex 1.51
#
DISCID=130d2a14
DTITLE=Bud Powell - Bud's Bubble  {1944-1947}
DYEAR=2000
DGENRE=Jazz
TTITLE0=I'll Remember April   [1947]
TTITLE1=Everything Happens To Me   [1947]
TTITLE2=Indiana   [1947]
TTITLE3=I Should Care   [1947]
TTITLE4=Nice Work If You Can Get It   [1947]
TTITLE5=Off Minor   [1947]
TTITLE6=Bud's Bubble   [1947]
TTITLE7=Somebody Loves Me   [1947]
TTITLE8=Honeysuckle Rose   [1944]
TTITLE9=September In The Rain   [1945]
TTITLE10=Long Tall Dexter   [1946]
TTITLE11=Bebop In Pastel   [1946]
TTITLE12=Fool's Fancy   [1946]
TTITLE13=Seven Up   [1946]
TTITLE14=Blues In Bebop   [1946]
TTITLE15=Mad Bebop   [1946]
TTITLE16=Donna Lee
TTITLE17=Chasing The Bird   [1947]
TTITLE18=Cheryl   [1947]
TTITLE19=Buzzy   [1947]
EXTD=YEAR: 2000
EXTT0=
EXTT1=
EXTT2=
EXTT3=
EXTT4=
EXTT5=
EXTT6=
EXTT7=
EXTT8=
EXTT9=
EXTT10=
EXTT11=
EXTT12=
EXTT13=
EXTT14=
EXTT15=
EXTT16=
EXTT17=
EXTT18=
EXTT19=
PLAYORDER=
